<svg xmlns="http://www.w3.org/2000/svg" xmlns:xlink="http://www.w3.org/1999/xlink" width="500" zoomAndPan="magnify" viewBox="0 0 375 374.999991" height="500" preserveAspectRatio="xMidYMid meet" version="1.0"><defs><g/><clipPath id="58fd8b3969"><path d="M 118.402344 48.082031 L 256.402344 48.082031 L 256.402344 187.582031 L 118.402344 187.582031 Z M 118.402344 48.082031 " clip-rule="nonzero"/></clipPath></defs><rect x="-37.5" width="450" fill="#ffffff" y="-37.499999" height="449.999989" fill-opacity="1"/><rect x="-37.5" width="450" fill="#ffffff" y="-37.499999" height="449.999989" fill-opacity="1"/><rect x="-37.5" width="450" fill="#ffffff" y="-37.499999" height="449.999989" fill-opacity="1"/><g fill="#000000" fill-opacity="1"><g transform="translate(91.944483, 230.344379)"><g><path d="M 17.460938 -18 L 11.730469 -5.550781 L 6.058594 -18 L 1.769531 -18 L 1.769531 0 L 5.730469 0 L 5.730469 -10.738281 L 10.589844 0 L 12.871094 0 L 17.761719 -10.710938 L 17.761719 0 L 21.71875 0 L 21.71875 -18 Z M 17.460938 -18 "/></g></g></g><g fill="#000000" fill-opacity="1"><g transform="translate(115.434464, 230.344379)"><g><path d="M 10.351562 0.238281 C 15.480469 0.238281 19.589844 -3.898438 19.589844 -9 C 19.589844 -14.101562 15.480469 -18.238281 10.351562 -18.238281 C 5.25 -18.238281 1.109375 -14.101562 1.109375 -9 C 1.109375 -3.898438 5.25 0.238281 10.351562 0.238281 Z M 10.351562 -3.628906 C 7.320312 -3.628906 5.011719 -5.96875 5.011719 -9 C 5.011719 -12.03125 7.320312 -14.371094 10.351562 -14.371094 C 13.410156 -14.371094 15.71875 -12.03125 15.71875 -9 C 15.71875 -5.96875 13.410156 -3.628906 10.351562 -3.628906 Z M 10.351562 -3.628906 "/></g></g></g><g fill="#000000" fill-opacity="1"><g transform="translate(136.16444, 230.344379)"><g><path d="M 12.871094 -18 L -0.148438 -18 L -0.148438 -14.488281 L 4.410156 -14.488281 L 4.410156 0 L 8.339844 0 L 8.339844 -14.488281 L 12.871094 -14.488281 Z M 12.871094 -18 "/></g></g></g><g fill="#000000" fill-opacity="1"><g transform="translate(148.884432, 230.344379)"><g><path d="M 10.351562 0.238281 C 15.480469 0.238281 19.589844 -3.898438 19.589844 -9 C 19.589844 -14.101562 15.480469 -18.238281 10.351562 -18.238281 C 5.25 -18.238281 1.109375 -14.101562 1.109375 -9 C 1.109375 -3.898438 5.25 0.238281 10.351562 0.238281 Z M 10.351562 -3.628906 C 7.320312 -3.628906 5.011719 -5.96875 5.011719 -9 C 5.011719 -12.03125 7.320312 -14.371094 10.351562 -14.371094 C 13.410156 -14.371094 15.71875 -12.03125 15.71875 -9 C 15.71875 -5.96875 13.410156 -3.628906 10.351562 -3.628906 Z M 10.351562 -3.628906 "/></g></g></g><g fill="#000000" fill-opacity="1"><g transform="translate(169.614408, 230.344379)"><g><path d="M 11.160156 -7.410156 C 13.289062 -8.039062 14.789062 -10.019531 14.789062 -12.480469 C 14.789062 -15.539062 12.511719 -18 9.421875 -18 L 1.769531 -18 L 1.769531 0 L 5.730469 0 L 5.730469 -6.960938 L 7.320312 -6.960938 L 11.761719 0 L 16.199219 0 Z M 8.820312 -10.230469 L 5.730469 -10.230469 L 5.730469 -14.488281 L 8.820312 -14.488281 C 10.078125 -14.488281 11.011719 -13.589844 11.011719 -12.359375 C 11.011719 -11.101562 10.078125 -10.230469 8.820312 -10.230469 Z M 8.820312 -10.230469 "/></g></g></g><g fill="#000000" fill-opacity="1"><g transform="translate(185.664391, 230.344379)"><g/></g></g><g fill="#000000" fill-opacity="1"><g transform="translate(192.864383, 230.344379)"><g><path d="M 12.75 -14.519531 L 12.75 -18 L 1.921875 -18 L 1.921875 0 L 12.75 0 L 12.75 -3.480469 L 5.878906 -3.480469 L 5.878906 -7.261719 L 11.761719 -7.261719 L 11.761719 -10.738281 L 5.878906 -10.738281 L 5.878906 -14.519531 Z M 12.75 -14.519531 "/></g></g></g><g fill="#000000" fill-opacity="1"><g transform="translate(206.844371, 230.344379)"><g><path d="M 17.460938 -18 L 11.730469 -5.550781 L 6.058594 -18 L 1.769531 -18 L 1.769531 0 L 5.730469 0 L 5.730469 -10.738281 L 10.589844 0 L 12.871094 0 L 17.761719 -10.710938 L 17.761719 0 L 21.71875 0 L 21.71875 -18 Z M 17.460938 -18 "/></g></g></g><g fill="#000000" fill-opacity="1"><g transform="translate(230.334352, 230.344379)"><g><path d="M 9.421875 -18 L 1.769531 -18 L 1.769531 0 L 5.730469 0 L 5.730469 -7.289062 L 9.421875 -7.289062 C 12.449219 -7.289062 14.789062 -9.539062 14.789062 -12.570312 C 14.789062 -15.570312 12.449219 -18 9.421875 -18 Z M 8.789062 -10.558594 L 5.730469 -10.558594 L 5.730469 -14.519531 L 8.789062 -14.519531 C 10.050781 -14.519531 11.011719 -13.710938 11.011719 -12.539062 C 11.011719 -11.339844 10.050781 -10.558594 8.789062 -10.558594 Z M 8.789062 -10.558594 "/></g></g></g><g fill="#000000" fill-opacity="1"><g transform="translate(245.244331, 230.344379)"><g><path d="M 1.921875 0 L 5.878906 0 L 5.878906 -18 L 1.921875 -18 Z M 1.921875 0 "/></g></g></g><g fill="#000000" fill-opacity="1"><g transform="translate(253.01432, 230.344379)"><g><path d="M 11.160156 -7.410156 C 13.289062 -8.039062 14.789062 -10.019531 14.789062 -12.480469 C 14.789062 -15.539062 12.511719 -18 9.421875 -18 L 1.769531 -18 L 1.769531 0 L 5.730469 0 L 5.730469 -6.960938 L 7.320312 -6.960938 L 11.761719 0 L 16.199219 0 Z M 8.820312 -10.230469 L 5.730469 -10.230469 L 5.730469 -14.488281 L 8.820312 -14.488281 C 10.078125 -14.488281 11.011719 -13.589844 11.011719 -12.359375 C 11.011719 -11.101562 10.078125 -10.230469 8.820312 -10.230469 Z M 8.820312 -10.230469 "/></g></g></g><g fill="#000000" fill-opacity="1"><g transform="translate(269.064303, 230.344379)"><g><path d="M 12.75 -14.519531 L 12.75 -18 L 1.921875 -18 L 1.921875 0 L 12.75 0 L 12.75 -3.480469 L 5.878906 -3.480469 L 5.878906 -7.261719 L 11.761719 -7.261719 L 11.761719 -10.738281 L 5.878906 -10.738281 L 5.878906 -14.519531 Z M 12.75 -14.519531 "/></g></g></g><g fill="#000000" fill-opacity="1"><g transform="translate(119.319481, 252.844378)"><g><path d="M 12.78125 0 L 17.011719 0 L 10.53125 -18 L 6.089844 -18 L -0.390625 0 L 3.839844 0 L 4.949219 -3.390625 L 11.671875 -3.390625 Z M 6 -6.691406 L 8.308594 -13.828125 L 10.621094 -6.691406 Z M 6 -6.691406 "/></g></g></g><g fill="#000000" fill-opacity="1"><g transform="translate(135.93946, 252.844378)"><g><path d="M 9.148438 0.238281 C 13.410156 0.238281 16.648438 -2.371094 16.648438 -5.761719 L 16.648438 -18 L 12.691406 -18 L 12.691406 -6.511719 C 12.691406 -4.679688 11.160156 -3.269531 9.148438 -3.269531 C 7.171875 -3.269531 5.640625 -4.679688 5.640625 -6.511719 L 5.640625 -18 L 1.679688 -18 L 1.679688 -5.761719 C 1.679688 -2.371094 4.949219 0.238281 9.148438 0.238281 Z M 9.148438 0.238281 "/></g></g></g><g fill="#000000" fill-opacity="1"><g transform="translate(154.269438, 252.844378)"><g><path d="M 12.871094 -18 L -0.148438 -18 L -0.148438 -14.488281 L 4.410156 -14.488281 L 4.410156 0 L 8.339844 0 L 8.339844 -14.488281 L 12.871094 -14.488281 Z M 12.871094 -18 "/></g></g></g><g fill="#000000" fill-opacity="1"><g transform="translate(166.98943, 252.844378)"><g><path d="M 10.351562 0.238281 C 15.480469 0.238281 19.589844 -3.898438 19.589844 -9 C 19.589844 -14.101562 15.480469 -18.238281 10.351562 -18.238281 C 5.25 -18.238281 1.109375 -14.101562 1.109375 -9 C 1.109375 -3.898438 5.25 0.238281 10.351562 0.238281 Z M 10.351562 -3.628906 C 7.320312 -3.628906 5.011719 -5.96875 5.011719 -9 C 5.011719 -12.03125 7.320312 -14.371094 10.351562 -14.371094 C 13.410156 -14.371094 15.71875 -12.03125 15.71875 -9 C 15.71875 -5.96875 13.410156 -3.628906 10.351562 -3.628906 Z M 10.351562 -3.628906 "/></g></g></g><g fill="#000000" fill-opacity="1"><g transform="translate(187.719406, 252.844378)"><g><path d="M 13.050781 -18 L 13.050781 -10.769531 L 5.730469 -10.769531 L 5.730469 -18 L 1.769531 -18 L 1.769531 0 L 5.730469 0 L 5.730469 -7.261719 L 13.050781 -7.261719 L 13.050781 0 L 16.980469 0 L 16.980469 -18 Z M 13.050781 -18 "/></g></g></g><g fill="#000000" fill-opacity="1"><g transform="translate(206.499388, 252.844378)"><g><path d="M 12.78125 0 L 17.011719 0 L 10.53125 -18 L 6.089844 -18 L -0.390625 0 L 3.839844 0 L 4.949219 -3.390625 L 11.671875 -3.390625 Z M 6 -6.691406 L 8.308594 -13.828125 L 10.621094 -6.691406 Z M 6 -6.691406 "/></g></g></g><g fill="#000000" fill-opacity="1"><g transform="translate(223.119367, 252.844378)"><g><path d="M 9.148438 0.238281 C 13.410156 0.238281 16.648438 -2.371094 16.648438 -5.761719 L 16.648438 -18 L 12.691406 -18 L 12.691406 -6.511719 C 12.691406 -4.679688 11.160156 -3.269531 9.148438 -3.269531 C 7.171875 -3.269531 5.640625 -4.679688 5.640625 -6.511719 L 5.640625 -18 L 1.679688 -18 L 1.679688 -5.761719 C 1.679688 -2.371094 4.949219 0.238281 9.148438 0.238281 Z M 9.148438 0.238281 "/></g></g></g><g fill="#000000" fill-opacity="1"><g transform="translate(241.449344, 252.844378)"><g><path d="M 7.320312 0.238281 C 10.679688 0.238281 13.53125 -1.738281 13.53125 -5.101562 C 13.53125 -11.761719 5.25 -10.109375 5.25 -13.230469 C 5.25 -14.25 6.03125 -14.730469 6.988281 -14.730469 C 8.011719 -14.730469 9.03125 -14.160156 9.929688 -13.171875 L 12.570312 -15.691406 C 11.25 -17.21875 9.238281 -18.238281 7.019531 -18.238281 C 4.171875 -18.238281 1.261719 -16.53125 1.261719 -12.929688 C 1.261719 -6.808594 9.570312 -8.28125 9.570312 -5.128906 C 9.570312 -4.140625 8.730469 -3.480469 7.351562 -3.480469 C 5.699219 -3.480469 4.410156 -4.410156 3.75 -5.820312 L 0.480469 -3.78125 C 1.648438 -1.53125 4.171875 0.238281 7.320312 0.238281 Z M 7.320312 0.238281 "/></g></g></g><g fill="#000000" fill-opacity="1"><g transform="translate(167.985674, 279.432608)"><g><path d="M 4.625 -2.078125 L 2.3125 -2.078125 L 1.625 0 L 0.15625 0 L 2.640625 -6.90625 L 4.375 -6.90625 L 6.8125 0 L 5.3125 0 Z M 3.484375 -5.71875 L 2.65625 -3.171875 L 4.28125 -3.171875 Z M 3.484375 -5.71875 "/></g></g></g><g fill="#000000" fill-opacity="1"><g transform="translate(175.943009, 279.432608)"><g><path d="M 4.921875 -3.71875 C 5.804688 -3.488281 6.25 -2.9375 6.25 -2.0625 C 6.25 -1.46875 6.0625 -1 5.6875 -0.65625 C 5.320312 -0.320312 4.878906 -0.117188 4.359375 -0.046875 C 4.128906 -0.015625 3.8125 0 3.40625 0 L 0.890625 0 L 0.890625 -6.90625 L 3.359375 -6.90625 C 3.722656 -6.90625 4.019531 -6.890625 4.25 -6.859375 C 4.800781 -6.796875 5.226562 -6.609375 5.53125 -6.296875 C 5.832031 -5.992188 5.984375 -5.609375 5.984375 -5.140625 C 5.984375 -4.441406 5.628906 -3.96875 4.921875 -3.71875 Z M 2.265625 -5.8125 L 2.265625 -4.0625 L 3.3125 -4.0625 C 3.476562 -4.0625 3.640625 -4.070312 3.796875 -4.09375 C 4.296875 -4.175781 4.546875 -4.460938 4.546875 -4.953125 C 4.546875 -5.441406 4.285156 -5.722656 3.765625 -5.796875 C 3.609375 -5.804688 3.441406 -5.8125 3.265625 -5.8125 Z M 3.9375 -1.09375 C 4.1875 -1.113281 4.390625 -1.207031 4.546875 -1.375 C 4.710938 -1.539062 4.796875 -1.765625 4.796875 -2.046875 C 4.796875 -2.628906 4.5 -2.953125 3.90625 -3.015625 C 3.738281 -3.035156 3.578125 -3.046875 3.421875 -3.046875 L 2.265625 -3.046875 L 2.265625 -1.09375 L 3.46875 -1.09375 C 3.6875 -1.09375 3.84375 -1.09375 3.9375 -1.09375 Z M 3.9375 -1.09375 "/></g></g></g><g fill="#000000" fill-opacity="1"><g transform="translate(183.710419, 279.432608)"><g><path d="M 3.921875 -7.046875 C 4.972656 -7.046875 5.800781 -6.71875 6.40625 -6.0625 C 7.019531 -5.414062 7.328125 -4.546875 7.328125 -3.453125 C 7.328125 -2.359375 7.019531 -1.484375 6.40625 -0.828125 C 5.800781 -0.179688 4.972656 0.140625 3.921875 0.140625 C 2.867188 0.140625 2.035156 -0.179688 1.421875 -0.828125 C 0.816406 -1.484375 0.515625 -2.359375 0.515625 -3.453125 C 0.515625 -4.546875 0.816406 -5.414062 1.421875 -6.0625 C 2.023438 -6.71875 2.859375 -7.046875 3.921875 -7.046875 Z M 2.46875 -1.5625 C 2.820312 -1.113281 3.304688 -0.890625 3.921875 -0.890625 C 4.535156 -0.890625 5.015625 -1.113281 5.359375 -1.5625 C 5.703125 -2.019531 5.875 -2.648438 5.875 -3.453125 C 5.875 -4.253906 5.703125 -4.878906 5.359375 -5.328125 C 5.015625 -5.785156 4.535156 -6.015625 3.921875 -6.015625 C 3.296875 -6.015625 2.8125 -5.785156 2.46875 -5.328125 C 2.125 -4.878906 1.953125 -4.25 1.953125 -3.4375 C 1.953125 -2.632812 2.125 -2.007812 2.46875 -1.5625 Z M 2.46875 -1.5625 "/></g></g></g><g fill="#000000" fill-opacity="1"><g transform="translate(192.557408, 279.432608)"><g><path d="M 6.484375 -6.90625 L 6.484375 -2.8125 C 6.484375 -2.476562 6.476562 -2.207031 6.46875 -2 C 6.425781 -1.375 6.171875 -0.859375 5.703125 -0.453125 C 5.242188 -0.0546875 4.5625 0.140625 3.65625 0.140625 C 2.738281 0.140625 2.046875 -0.0546875 1.578125 -0.453125 C 1.117188 -0.859375 0.863281 -1.375 0.8125 -2 C 0.800781 -2.207031 0.796875 -2.476562 0.796875 -2.8125 L 0.796875 -6.90625 L 2.171875 -6.90625 L 2.171875 -2.671875 C 2.171875 -2.429688 2.175781 -2.265625 2.1875 -2.171875 C 2.21875 -1.765625 2.351562 -1.445312 2.59375 -1.21875 C 2.84375 -1 3.195312 -0.890625 3.65625 -0.890625 C 4.09375 -0.890625 4.429688 -1 4.671875 -1.21875 C 4.921875 -1.445312 5.0625 -1.765625 5.09375 -2.171875 C 5.113281 -2.265625 5.125 -2.429688 5.125 -2.671875 L 5.125 -6.90625 Z M 6.484375 -6.90625 "/></g></g></g><g fill="#000000" fill-opacity="1"><g transform="translate(200.774637, 279.432608)"><g><path d="M 6.296875 -5.8125 L 3.953125 -5.8125 L 3.953125 0 L 2.5625 0 L 2.5625 -5.8125 L 0.234375 -5.8125 L 0.234375 -6.90625 L 6.296875 -6.90625 Z M 6.296875 -5.8125 "/></g></g></g><g fill="#000000" fill-opacity="1"><g transform="translate(188.095048, 292.182607)"><g/></g></g><g clip-path="url(#58fd8b3969)"><path fill="#ff1616" d="M 230.757812 48.082031 C 227.308594 48.082031 223.996094 48.746094 220.945312 50.074219 L 220.8125 50.074219 L 155.316406 78.773438 C 153.328125 79.703125 152.398438 81.960938 153.328125 84.085938 C 153.992188 85.546875 155.445312 86.480469 157.039062 86.480469 C 157.570312 86.480469 158.101562 86.34375 158.632812 86.078125 L 206.890625 64.953125 C 205.828125 67.746094 205.300781 70.800781 205.300781 73.988281 C 205.300781 88.339844 216.835938 99.898438 230.890625 99.898438 C 244.945312 99.898438 256.347656 88.339844 256.347656 73.988281 C 256.347656 59.640625 244.8125 48.082031 230.757812 48.082031 Z M 230.757812 56.054688 C 240.433594 56.054688 248.390625 64.160156 248.390625 73.988281 C 248.390625 83.820312 240.433594 91.925781 230.757812 91.925781 C 221.078125 91.925781 213.125 83.820312 213.125 73.988281 C 213.125 64.160156 221.078125 56.054688 230.757812 56.054688 Z M 230.625 68.542969 C 230.265625 68.542969 229.914062 68.578125 229.5625 68.648438 C 229.214844 68.71875 228.875 68.820312 228.542969 68.957031 C 228.214844 69.09375 227.902344 69.261719 227.605469 69.460938 C 227.308594 69.660156 227.035156 69.886719 226.78125 70.140625 C 226.527344 70.390625 226.304688 70.667969 226.105469 70.964844 C 225.90625 71.261719 225.738281 71.574219 225.601562 71.90625 C 225.464844 72.234375 225.363281 72.578125 225.292969 72.925781 C 225.222656 73.277344 225.1875 73.632812 225.1875 73.988281 C 225.1875 74.347656 225.222656 74.703125 225.292969 75.050781 C 225.363281 75.402344 225.464844 75.742188 225.601562 76.074219 C 225.738281 76.40625 225.90625 76.71875 226.105469 77.015625 C 226.304688 77.3125 226.527344 77.589844 226.78125 77.839844 C 227.035156 78.09375 227.308594 78.320312 227.605469 78.519531 C 227.902344 78.71875 228.214844 78.886719 228.542969 79.023438 C 228.875 79.160156 229.214844 79.261719 229.5625 79.332031 C 229.914062 79.402344 230.269531 79.4375 230.625 79.4375 C 230.980469 79.4375 231.335938 79.402344 231.683594 79.332031 C 232.035156 79.261719 232.375 79.160156 232.703125 79.023438 C 233.035156 78.886719 233.347656 78.71875 233.644531 78.519531 C 233.941406 78.320312 234.214844 78.09375 234.46875 77.839844 C 234.71875 77.589844 234.945312 77.3125 235.144531 77.015625 C 235.34375 76.71875 235.507812 76.40625 235.644531 76.074219 C 235.78125 75.742188 235.886719 75.402344 235.957031 75.050781 C 236.023438 74.703125 236.058594 74.347656 236.058594 73.988281 C 236.058594 73.632812 236.023438 73.277344 235.957031 72.925781 C 235.886719 72.578125 235.78125 72.234375 235.644531 71.90625 C 235.507812 71.574219 235.34375 71.261719 235.144531 70.964844 C 234.945312 70.667969 234.71875 70.390625 234.46875 70.136719 C 234.214844 69.886719 233.941406 69.660156 233.644531 69.460938 C 233.347656 69.261719 233.035156 69.09375 232.703125 68.957031 C 232.375 68.820312 232.035156 68.71875 231.683594 68.648438 C 231.335938 68.578125 230.980469 68.542969 230.625 68.542969 Z M 138.742188 88.605469 C 127.605469 88.605469 118.457031 97.773438 118.457031 109.066406 C 118.457031 114.113281 120.3125 118.761719 123.359375 122.351562 C 123.492188 122.484375 123.496094 122.613281 123.628906 122.613281 L 149.082031 149.71875 C 149.878906 150.515625 150.941406 150.914062 152 150.914062 C 152.929688 150.914062 153.988281 150.515625 154.785156 149.851562 C 156.375 148.390625 156.507812 145.867188 154.917969 144.273438 L 140.863281 129.390625 C 150.941406 128.328125 158.894531 119.558594 158.894531 109.066406 C 158.894531 97.773438 149.878906 88.605469 138.742188 88.605469 Z M 138.742188 96.574219 C 145.503906 96.574219 150.941406 102.15625 150.941406 109.066406 C 150.941406 115.972656 145.503906 121.554688 138.742188 121.554688 C 135.429688 121.554688 132.378906 120.222656 130.125 117.964844 L 129.859375 117.699219 C 127.738281 115.441406 126.410156 112.386719 126.410156 109.066406 C 126.410156 102.15625 131.980469 96.574219 138.742188 96.574219 Z M 246.804688 100.539062 C 244.972656 100.671875 243.320312 102.023438 243.089844 103.882812 L 239.773438 125.804688 C 232.878906 112.121094 218.691406 102.820312 202.515625 102.820312 C 179.445312 102.953125 160.75 121.816406 160.75 145.199219 C 160.75 168.582031 179.578125 187.582031 202.648438 187.582031 C 222.800781 187.582031 239.773438 172.96875 243.617188 153.441406 L 243.617188 153.171875 C 243.75 152.242188 244.015625 151.179688 244.015625 150.25 L 250.910156 105.078125 C 251.308594 102.953125 249.71875 100.828125 247.597656 100.5625 C 247.332031 100.527344 247.066406 100.523438 246.804688 100.539062 Z M 138.742188 105.078125 C 138.480469 105.078125 138.222656 105.105469 137.964844 105.15625 C 137.710938 105.207031 137.460938 105.28125 137.21875 105.382812 C 136.980469 105.484375 136.75 105.605469 136.53125 105.75 C 136.316406 105.894531 136.113281 106.0625 135.929688 106.246094 C 135.746094 106.429688 135.582031 106.632812 135.433594 106.851562 C 135.289062 107.066406 135.167969 107.296875 135.066406 107.539062 C 134.96875 107.78125 134.890625 108.03125 134.839844 108.289062 C 134.789062 108.542969 134.765625 108.804688 134.765625 109.066406 C 134.765625 109.328125 134.789062 109.585938 134.839844 109.84375 C 134.890625 110.097656 134.96875 110.347656 135.066406 110.589844 C 135.167969 110.832031 135.289062 111.0625 135.433594 111.277344 C 135.582031 111.496094 135.746094 111.699219 135.929688 111.882812 C 136.113281 112.066406 136.316406 112.234375 136.53125 112.378906 C 136.75 112.523438 136.980469 112.648438 137.21875 112.746094 C 137.460938 112.847656 137.710938 112.921875 137.964844 112.972656 C 138.222656 113.023438 138.480469 113.050781 138.742188 113.050781 C 139.003906 113.050781 139.261719 113.023438 139.519531 112.972656 C 139.773438 112.921875 140.023438 112.847656 140.265625 112.746094 C 140.507812 112.648438 140.734375 112.523438 140.953125 112.378906 C 141.167969 112.234375 141.371094 112.066406 141.554688 111.882812 C 141.738281 111.699219 141.90625 111.496094 142.050781 111.277344 C 142.195312 111.0625 142.316406 110.832031 142.417969 110.589844 C 142.515625 110.347656 142.59375 110.097656 142.644531 109.84375 C 142.695312 109.585938 142.71875 109.328125 142.71875 109.066406 C 142.71875 108.804688 142.695312 108.542969 142.644531 108.289062 C 142.59375 108.03125 142.515625 107.78125 142.417969 107.539062 C 142.316406 107.296875 142.195312 107.066406 142.050781 106.851562 C 141.90625 106.632812 141.738281 106.429688 141.554688 106.246094 C 141.371094 106.0625 141.167969 105.894531 140.953125 105.75 C 140.734375 105.605469 140.507812 105.484375 140.265625 105.382812 C 140.023438 105.28125 139.773438 105.207031 139.519531 105.15625 C 139.261719 105.105469 139.003906 105.078125 138.742188 105.078125 Z M 202.515625 110.789062 C 221.210938 110.789062 236.457031 126.335938 236.457031 145.199219 C 236.457031 146.53125 236.328125 147.859375 236.195312 149.054688 L 235.796875 151.976562 C 232.746094 167.652344 218.957031 179.613281 202.515625 179.613281 C 183.820312 179.613281 168.574219 164.199219 168.574219 145.199219 C 168.574219 126.203125 183.820312 110.789062 202.515625 110.789062 Z M 202.78125 119.425781 C 200.527344 119.425781 198.804688 121.152344 198.804688 123.410156 L 198.804688 130.984375 C 197.609375 131.25 196.550781 131.785156 195.488281 132.316406 L 190.316406 127 C 188.726562 125.40625 186.207031 125.40625 184.75 127 C 183.160156 128.59375 183.160156 131.117188 184.75 132.578125 L 190.054688 137.894531 C 189.523438 138.957031 188.992188 140.019531 188.726562 141.214844 L 181.304688 141.214844 C 179.050781 141.214844 177.324219 142.941406 177.324219 145.199219 C 177.324219 147.460938 179.050781 149.1875 181.304688 149.1875 L 188.726562 149.1875 C 188.992188 150.382812 189.523438 151.445312 190.054688 152.507812 L 184.75 157.824219 C 183.160156 159.417969 183.160156 161.941406 184.75 163.402344 C 185.546875 164.199219 186.472656 164.597656 187.535156 164.597656 C 188.59375 164.597656 189.523438 164.199219 190.316406 163.402344 L 195.488281 158.089844 C 196.550781 158.621094 197.609375 159.152344 198.804688 159.417969 L 198.804688 166.988281 C 198.804688 169.25 200.527344 170.976562 202.78125 170.976562 C 205.035156 170.976562 206.757812 169.25 206.757812 166.988281 L 206.757812 159.417969 C 207.953125 159.152344 209.011719 158.621094 210.074219 158.089844 L 215.246094 163.402344 C 216.039062 164.199219 217.101562 164.597656 218.027344 164.597656 C 219.089844 164.597656 220.015625 164.199219 220.8125 163.402344 C 222.402344 161.808594 222.402344 159.285156 220.8125 157.824219 L 215.507812 152.507812 C 216.039062 151.445312 216.570312 150.382812 216.835938 149.1875 L 224.261719 149.1875 C 226.515625 149.1875 228.238281 147.460938 228.238281 145.199219 C 228.238281 142.941406 226.515625 141.214844 224.261719 141.214844 L 216.835938 141.214844 C 216.570312 140.019531 216.039062 138.957031 215.507812 137.894531 L 220.8125 132.578125 C 222.402344 130.984375 222.402344 128.460938 220.8125 127 C 219.222656 125.40625 216.703125 125.40625 215.246094 127 L 210.074219 132.316406 C 209.011719 131.785156 207.953125 131.25 206.757812 130.984375 L 206.757812 123.410156 C 206.757812 121.152344 205.035156 119.425781 202.78125 119.425781 Z M 202.515625 138.425781 C 206.230469 138.425781 209.410156 141.613281 209.410156 145.332031 C 209.410156 149.054688 206.363281 152.242188 202.515625 152.242188 C 198.804688 152.242188 195.621094 149.054688 195.621094 145.332031 C 195.621094 141.613281 198.671875 138.425781 202.515625 138.425781 Z M 202.515625 138.425781 " fill-opacity="1" fill-rule="nonzero"/></g></svg>