<svg xmlns="http://www.w3.org/2000/svg" xmlns:xlink="http://www.w3.org/1999/xlink" width="500" zoomAndPan="magnify" viewBox="0 0 375 374.999991" height="500" preserveAspectRatio="xMidYMid meet" version="1.0"><defs><g/><clipPath id="5b25a8d45c"><path d="M 94 107 L 281 107 L 281 214.964844 L 94 214.964844 Z M 94 107 " clip-rule="nonzero"/></clipPath></defs><rect x="-37.5" width="450" fill="#ffffff" y="-37.499999" height="449.999989" fill-opacity="1"/><rect x="-37.5" width="450" fill="#ffffff" y="-37.499999" height="449.999989" fill-opacity="1"/><rect x="-37.5" width="450" fill="#ffffff" y="-37.499999" height="449.999989" fill-opacity="1"/><g clip-path="url(#5b25a8d45c)"><path fill="#ff1616" d="M 231.089844 201.558594 L 225.574219 201.566406 L 224.191406 201.566406 C 224.195312 196.484375 223.125 191.417969 220.972656 186.652344 C 216.988281 177.875 209.839844 171.164062 200.820312 167.773438 C 196.730469 166.230469 192.472656 165.453125 188.164062 165.453125 C 173.234375 165.453125 159.671875 174.859375 154.421875 188.863281 C 152.875 192.992188 152.109375 197.28125 152.105469 201.558594 L 150.726562 201.558594 L 145.214844 201.566406 L 143.839844 201.566406 C 143.84375 196.304688 144.78125 191.03125 146.691406 185.960938 C 153.144531 168.738281 169.8125 157.167969 188.175781 157.167969 C 193.476562 157.164062 198.714844 158.121094 203.734375 160.015625 C 214.824219 164.191406 223.617188 172.433594 228.503906 183.230469 C 231.15625 189.089844 232.472656 195.320312 232.46875 201.558594 Z M 216.441406 201.558594 C 216.441406 197.574219 215.625 193.59375 213.929688 189.855469 C 210.804688 182.949219 205.1875 177.683594 198.109375 175.019531 C 194.890625 173.808594 191.546875 173.195312 188.160156 173.195312 C 176.429688 173.195312 165.777344 180.585938 161.648438 191.589844 C 160.4375 194.828125 159.859375 198.199219 159.859375 201.5625 L 214.367188 201.5625 Z M 135.425781 201.558594 L 135.425781 201.5625 L 135.433594 201.554688 C 135.433594 172.386719 159.027344 148.738281 188.152344 148.742188 L 188.148438 148.742188 C 159.027344 148.746094 135.425781 172.390625 135.425781 201.558594 Z M 240.863281 201.566406 L 240.875 201.558594 C 240.871094 201.558594 240.871094 201.558594 240.871094 201.558594 C 240.875 172.386719 217.265625 148.742188 188.148438 148.746094 C 217.257812 148.746094 240.859375 172.394531 240.859375 201.558594 C 240.863281 201.558594 240.863281 201.558594 240.863281 201.566406 Z M 279.910156 173.621094 L 269.566406 150.792969 C 268.410156 148.191406 265.308594 147.019531 262.699219 148.195312 L 247.003906 155.324219 C 244.410156 156.515625 240.683594 155.769531 238.734375 153.671875 L 232.484375 147.804688 C 230.273438 145.996094 229.289062 142.320312 230.292969 139.644531 L 236.335938 123.5 C 237.351562 120.804688 235.992188 117.792969 233.3125 116.804688 L 209.886719 107.988281 C 207.226562 106.976562 204.203125 108.332031 203.199219 111.015625 L 197.148438 127.164062 C 196.144531 129.835938 192.976562 131.957031 190.128906 131.84375 L 181.570312 132.144531 C 178.734375 132.425781 175.433594 130.542969 174.257812 127.933594 L 167.140625 112.207031 C 165.949219 109.601562 162.867188 108.433594 160.265625 109.621094 L 137.46875 119.976562 C 134.875 121.164062 133.707031 124.265625 134.886719 126.859375 L 142.011719 142.578125 C 143.1875 145.191406 142.453125 148.929688 140.355469 150.871094 L 134.503906 157.121094 C 132.683594 159.34375 129.03125 160.328125 126.355469 159.320312 L 110.242188 153.261719 C 107.566406 152.257812 104.566406 153.613281 103.542969 156.3125 L 94.746094 179.761719 C 93.738281 182.433594 95.113281 185.460938 97.785156 186.464844 L 113.890625 192.539062 C 116.574219 193.539062 118.667969 196.703125 118.566406 199.585938 L 118.632812 201.5625 L 135.417969 201.5625 C 135.417969 172.390625 159.019531 148.746094 188.140625 148.746094 L 188.144531 148.746094 C 217.261719 148.742188 240.871094 172.390625 240.867188 201.558594 C 240.867188 201.558594 240.867188 201.558594 240.871094 201.558594 L 252.457031 201.558594 L 257.652344 201.566406 L 257.414062 194.96875 C 257.140625 192.117188 259.035156 188.824219 261.636719 187.648438 L 277.300781 180.515625 C 279.925781 179.335938 281.082031 176.222656 279.910156 173.621094 Z M 127.121094 214.976562 L 249.179688 214.976562 C 253.886719 214.976562 257.703125 211.152344 257.703125 206.4375 L 118.597656 206.4375 C 118.597656 211.152344 122.414062 214.976562 127.121094 214.976562 Z M 127.121094 214.976562 " fill-opacity="1" fill-rule="nonzero"/></g><g fill="#000000" fill-opacity="1"><g transform="translate(91.944483, 240.043753)"><g><path d="M 17.460938 -18 L 11.730469 -5.550781 L 6.058594 -18 L 1.769531 -18 L 1.769531 0 L 5.730469 0 L 5.730469 -10.738281 L 10.589844 0 L 12.871094 0 L 17.761719 -10.710938 L 17.761719 0 L 21.71875 0 L 21.71875 -18 Z M 17.460938 -18 "/></g></g></g><g fill="#000000" fill-opacity="1"><g transform="translate(115.434464, 240.043753)"><g><path d="M 10.351562 0.238281 C 15.480469 0.238281 19.589844 -3.898438 19.589844 -9 C 19.589844 -14.101562 15.480469 -18.238281 10.351562 -18.238281 C 5.25 -18.238281 1.109375 -14.101562 1.109375 -9 C 1.109375 -3.898438 5.25 0.238281 10.351562 0.238281 Z M 10.351562 -3.628906 C 7.320312 -3.628906 5.011719 -5.96875 5.011719 -9 C 5.011719 -12.03125 7.320312 -14.371094 10.351562 -14.371094 C 13.410156 -14.371094 15.71875 -12.03125 15.71875 -9 C 15.71875 -5.96875 13.410156 -3.628906 10.351562 -3.628906 Z M 10.351562 -3.628906 "/></g></g></g><g fill="#000000" fill-opacity="1"><g transform="translate(136.16444, 240.043753)"><g><path d="M 12.871094 -18 L -0.148438 -18 L -0.148438 -14.488281 L 4.410156 -14.488281 L 4.410156 0 L 8.339844 0 L 8.339844 -14.488281 L 12.871094 -14.488281 Z M 12.871094 -18 "/></g></g></g><g fill="#000000" fill-opacity="1"><g transform="translate(148.884432, 240.043753)"><g><path d="M 10.351562 0.238281 C 15.480469 0.238281 19.589844 -3.898438 19.589844 -9 C 19.589844 -14.101562 15.480469 -18.238281 10.351562 -18.238281 C 5.25 -18.238281 1.109375 -14.101562 1.109375 -9 C 1.109375 -3.898438 5.25 0.238281 10.351562 0.238281 Z M 10.351562 -3.628906 C 7.320312 -3.628906 5.011719 -5.96875 5.011719 -9 C 5.011719 -12.03125 7.320312 -14.371094 10.351562 -14.371094 C 13.410156 -14.371094 15.71875 -12.03125 15.71875 -9 C 15.71875 -5.96875 13.410156 -3.628906 10.351562 -3.628906 Z M 10.351562 -3.628906 "/></g></g></g><g fill="#000000" fill-opacity="1"><g transform="translate(169.614408, 240.043753)"><g><path d="M 11.160156 -7.410156 C 13.289062 -8.039062 14.789062 -10.019531 14.789062 -12.480469 C 14.789062 -15.539062 12.511719 -18 9.421875 -18 L 1.769531 -18 L 1.769531 0 L 5.730469 0 L 5.730469 -6.960938 L 7.320312 -6.960938 L 11.761719 0 L 16.199219 0 Z M 8.820312 -10.230469 L 5.730469 -10.230469 L 5.730469 -14.488281 L 8.820312 -14.488281 C 10.078125 -14.488281 11.011719 -13.589844 11.011719 -12.359375 C 11.011719 -11.101562 10.078125 -10.230469 8.820312 -10.230469 Z M 8.820312 -10.230469 "/></g></g></g><g fill="#000000" fill-opacity="1"><g transform="translate(185.664391, 240.043753)"><g/></g></g><g fill="#000000" fill-opacity="1"><g transform="translate(192.864383, 240.043753)"><g><path d="M 12.75 -14.519531 L 12.75 -18 L 1.921875 -18 L 1.921875 0 L 12.75 0 L 12.75 -3.480469 L 5.878906 -3.480469 L 5.878906 -7.261719 L 11.761719 -7.261719 L 11.761719 -10.738281 L 5.878906 -10.738281 L 5.878906 -14.519531 Z M 12.75 -14.519531 "/></g></g></g><g fill="#000000" fill-opacity="1"><g transform="translate(206.844371, 240.043753)"><g><path d="M 17.460938 -18 L 11.730469 -5.550781 L 6.058594 -18 L 1.769531 -18 L 1.769531 0 L 5.730469 0 L 5.730469 -10.738281 L 10.589844 0 L 12.871094 0 L 17.761719 -10.710938 L 17.761719 0 L 21.71875 0 L 21.71875 -18 Z M 17.460938 -18 "/></g></g></g><g fill="#000000" fill-opacity="1"><g transform="translate(230.334352, 240.043753)"><g><path d="M 9.421875 -18 L 1.769531 -18 L 1.769531 0 L 5.730469 0 L 5.730469 -7.289062 L 9.421875 -7.289062 C 12.449219 -7.289062 14.789062 -9.539062 14.789062 -12.570312 C 14.789062 -15.570312 12.449219 -18 9.421875 -18 Z M 8.789062 -10.558594 L 5.730469 -10.558594 L 5.730469 -14.519531 L 8.789062 -14.519531 C 10.050781 -14.519531 11.011719 -13.710938 11.011719 -12.539062 C 11.011719 -11.339844 10.050781 -10.558594 8.789062 -10.558594 Z M 8.789062 -10.558594 "/></g></g></g><g fill="#000000" fill-opacity="1"><g transform="translate(245.244331, 240.043753)"><g><path d="M 1.921875 0 L 5.878906 0 L 5.878906 -18 L 1.921875 -18 Z M 1.921875 0 "/></g></g></g><g fill="#000000" fill-opacity="1"><g transform="translate(253.01432, 240.043753)"><g><path d="M 11.160156 -7.410156 C 13.289062 -8.039062 14.789062 -10.019531 14.789062 -12.480469 C 14.789062 -15.539062 12.511719 -18 9.421875 -18 L 1.769531 -18 L 1.769531 0 L 5.730469 0 L 5.730469 -6.960938 L 7.320312 -6.960938 L 11.761719 0 L 16.199219 0 Z M 8.820312 -10.230469 L 5.730469 -10.230469 L 5.730469 -14.488281 L 8.820312 -14.488281 C 10.078125 -14.488281 11.011719 -13.589844 11.011719 -12.359375 C 11.011719 -11.101562 10.078125 -10.230469 8.820312 -10.230469 Z M 8.820312 -10.230469 "/></g></g></g><g fill="#000000" fill-opacity="1"><g transform="translate(269.064303, 240.043753)"><g><path d="M 12.75 -14.519531 L 12.75 -18 L 1.921875 -18 L 1.921875 0 L 12.75 0 L 12.75 -3.480469 L 5.878906 -3.480469 L 5.878906 -7.261719 L 11.761719 -7.261719 L 11.761719 -10.738281 L 5.878906 -10.738281 L 5.878906 -14.519531 Z M 12.75 -14.519531 "/></g></g></g><g fill="#000000" fill-opacity="1"><g transform="translate(119.319481, 262.543752)"><g><path d="M 12.78125 0 L 17.011719 0 L 10.53125 -18 L 6.089844 -18 L -0.390625 0 L 3.839844 0 L 4.949219 -3.390625 L 11.671875 -3.390625 Z M 6 -6.691406 L 8.308594 -13.828125 L 10.621094 -6.691406 Z M 6 -6.691406 "/></g></g></g><g fill="#000000" fill-opacity="1"><g transform="translate(135.93946, 262.543752)"><g><path d="M 9.148438 0.238281 C 13.410156 0.238281 16.648438 -2.371094 16.648438 -5.761719 L 16.648438 -18 L 12.691406 -18 L 12.691406 -6.511719 C 12.691406 -4.679688 11.160156 -3.269531 9.148438 -3.269531 C 7.171875 -3.269531 5.640625 -4.679688 5.640625 -6.511719 L 5.640625 -18 L 1.679688 -18 L 1.679688 -5.761719 C 1.679688 -2.371094 4.949219 0.238281 9.148438 0.238281 Z M 9.148438 0.238281 "/></g></g></g><g fill="#000000" fill-opacity="1"><g transform="translate(154.269438, 262.543752)"><g><path d="M 12.871094 -18 L -0.148438 -18 L -0.148438 -14.488281 L 4.410156 -14.488281 L 4.410156 0 L 8.339844 0 L 8.339844 -14.488281 L 12.871094 -14.488281 Z M 12.871094 -18 "/></g></g></g><g fill="#000000" fill-opacity="1"><g transform="translate(166.98943, 262.543752)"><g><path d="M 10.351562 0.238281 C 15.480469 0.238281 19.589844 -3.898438 19.589844 -9 C 19.589844 -14.101562 15.480469 -18.238281 10.351562 -18.238281 C 5.25 -18.238281 1.109375 -14.101562 1.109375 -9 C 1.109375 -3.898438 5.25 0.238281 10.351562 0.238281 Z M 10.351562 -3.628906 C 7.320312 -3.628906 5.011719 -5.96875 5.011719 -9 C 5.011719 -12.03125 7.320312 -14.371094 10.351562 -14.371094 C 13.410156 -14.371094 15.71875 -12.03125 15.71875 -9 C 15.71875 -5.96875 13.410156 -3.628906 10.351562 -3.628906 Z M 10.351562 -3.628906 "/></g></g></g><g fill="#000000" fill-opacity="1"><g transform="translate(187.719406, 262.543752)"><g><path d="M 13.050781 -18 L 13.050781 -10.769531 L 5.730469 -10.769531 L 5.730469 -18 L 1.769531 -18 L 1.769531 0 L 5.730469 0 L 5.730469 -7.261719 L 13.050781 -7.261719 L 13.050781 0 L 16.980469 0 L 16.980469 -18 Z M 13.050781 -18 "/></g></g></g><g fill="#000000" fill-opacity="1"><g transform="translate(206.499388, 262.543752)"><g><path d="M 12.78125 0 L 17.011719 0 L 10.53125 -18 L 6.089844 -18 L -0.390625 0 L 3.839844 0 L 4.949219 -3.390625 L 11.671875 -3.390625 Z M 6 -6.691406 L 8.308594 -13.828125 L 10.621094 -6.691406 Z M 6 -6.691406 "/></g></g></g><g fill="#000000" fill-opacity="1"><g transform="translate(223.119367, 262.543752)"><g><path d="M 9.148438 0.238281 C 13.410156 0.238281 16.648438 -2.371094 16.648438 -5.761719 L 16.648438 -18 L 12.691406 -18 L 12.691406 -6.511719 C 12.691406 -4.679688 11.160156 -3.269531 9.148438 -3.269531 C 7.171875 -3.269531 5.640625 -4.679688 5.640625 -6.511719 L 5.640625 -18 L 1.679688 -18 L 1.679688 -5.761719 C 1.679688 -2.371094 4.949219 0.238281 9.148438 0.238281 Z M 9.148438 0.238281 "/></g></g></g><g fill="#000000" fill-opacity="1"><g transform="translate(241.449344, 262.543752)"><g><path d="M 7.320312 0.238281 C 10.679688 0.238281 13.53125 -1.738281 13.53125 -5.101562 C 13.53125 -11.761719 5.25 -10.109375 5.25 -13.230469 C 5.25 -14.25 6.03125 -14.730469 6.988281 -14.730469 C 8.011719 -14.730469 9.03125 -14.160156 9.929688 -13.171875 L 12.570312 -15.691406 C 11.25 -17.21875 9.238281 -18.238281 7.019531 -18.238281 C 4.171875 -18.238281 1.261719 -16.53125 1.261719 -12.929688 C 1.261719 -6.808594 9.570312 -8.28125 9.570312 -5.128906 C 9.570312 -4.140625 8.730469 -3.480469 7.351562 -3.480469 C 5.699219 -3.480469 4.410156 -4.410156 3.75 -5.820312 L 0.480469 -3.78125 C 1.648438 -1.53125 4.171875 0.238281 7.320312 0.238281 Z M 7.320312 0.238281 "/></g></g></g><g fill="#000000" fill-opacity="1"><g transform="translate(145.989582, 283.793741)"><g><path d="M 4.625 -2.078125 L 2.3125 -2.078125 L 1.625 0 L 0.15625 0 L 2.640625 -6.90625 L 4.375 -6.90625 L 6.8125 0 L 5.3125 0 Z M 3.484375 -5.71875 L 2.65625 -3.171875 L 4.28125 -3.171875 Z M 3.484375 -5.71875 "/></g></g></g><g fill="#000000" fill-opacity="1"><g transform="translate(153.946914, 283.793741)"><g><path d="M 4.28125 -6.84375 C 4.832031 -6.789062 5.28125 -6.582031 5.625 -6.21875 C 5.96875 -5.851562 6.140625 -5.363281 6.140625 -4.75 C 6.140625 -4.144531 5.960938 -3.660156 5.609375 -3.296875 C 5.253906 -2.929688 4.8125 -2.71875 4.28125 -2.65625 C 3.988281 -2.613281 3.65625 -2.59375 3.28125 -2.59375 L 2.265625 -2.59375 L 2.265625 0 L 0.890625 0 L 0.890625 -6.90625 L 3.28125 -6.90625 C 3.664062 -6.90625 4 -6.882812 4.28125 -6.84375 Z M 3.875 -3.71875 C 4.414062 -3.800781 4.6875 -4.144531 4.6875 -4.75 C 4.6875 -5.351562 4.414062 -5.695312 3.875 -5.78125 C 3.71875 -5.800781 3.515625 -5.8125 3.265625 -5.8125 L 2.265625 -5.8125 L 2.265625 -3.6875 L 3.265625 -3.6875 C 3.515625 -3.6875 3.71875 -3.695312 3.875 -3.71875 Z M 3.875 -3.71875 "/></g></g></g><g fill="#000000" fill-opacity="1"><g transform="translate(161.374453, 283.793741)"><g><path d="M 4.28125 -6.84375 C 4.832031 -6.789062 5.28125 -6.582031 5.625 -6.21875 C 5.96875 -5.851562 6.140625 -5.363281 6.140625 -4.75 C 6.140625 -4.144531 5.960938 -3.660156 5.609375 -3.296875 C 5.253906 -2.929688 4.8125 -2.71875 4.28125 -2.65625 C 3.988281 -2.613281 3.65625 -2.59375 3.28125 -2.59375 L 2.265625 -2.59375 L 2.265625 0 L 0.890625 0 L 0.890625 -6.90625 L 3.28125 -6.90625 C 3.664062 -6.90625 4 -6.882812 4.28125 -6.84375 Z M 3.875 -3.71875 C 4.414062 -3.800781 4.6875 -4.144531 4.6875 -4.75 C 4.6875 -5.351562 4.414062 -5.695312 3.875 -5.78125 C 3.71875 -5.800781 3.515625 -5.8125 3.265625 -5.8125 L 2.265625 -5.8125 L 2.265625 -3.6875 L 3.265625 -3.6875 C 3.515625 -3.6875 3.71875 -3.695312 3.875 -3.71875 Z M 3.875 -3.71875 "/></g></g></g><g fill="#000000" fill-opacity="1"><g transform="translate(168.801992, 283.793741)"><g/></g></g><g fill="#000000" fill-opacity="1"><g transform="translate(171.941224, 283.793741)"><g><path d="M 3.1875 -7.046875 C 3.96875 -7.046875 4.566406 -6.847656 4.984375 -6.453125 C 5.398438 -6.054688 5.648438 -5.53125 5.734375 -4.875 L 4.3125 -4.875 C 4.28125 -5.226562 4.160156 -5.503906 3.953125 -5.703125 C 3.753906 -5.910156 3.476562 -6.015625 3.125 -6.015625 C 2.84375 -6.015625 2.609375 -5.941406 2.421875 -5.796875 C 2.242188 -5.660156 2.15625 -5.457031 2.15625 -5.1875 C 2.15625 -4.894531 2.265625 -4.664062 2.484375 -4.5 C 2.703125 -4.332031 3.082031 -4.1875 3.625 -4.0625 C 4.382812 -3.882812 4.941406 -3.617188 5.296875 -3.265625 C 5.648438 -2.910156 5.828125 -2.457031 5.828125 -1.90625 C 5.828125 -1.269531 5.578125 -0.769531 5.078125 -0.40625 C 4.585938 -0.0390625 3.988281 0.140625 3.28125 0.140625 C 2.4375 0.140625 1.765625 -0.0390625 1.265625 -0.40625 C 0.765625 -0.78125 0.484375 -1.328125 0.421875 -2.046875 L 1.828125 -2.046875 C 1.898438 -1.671875 2.066406 -1.382812 2.328125 -1.1875 C 2.585938 -0.988281 2.898438 -0.890625 3.265625 -0.890625 C 3.578125 -0.890625 3.84375 -0.96875 4.0625 -1.125 C 4.28125 -1.289062 4.390625 -1.503906 4.390625 -1.765625 C 4.390625 -2.054688 4.285156 -2.289062 4.078125 -2.46875 C 3.867188 -2.644531 3.515625 -2.796875 3.015625 -2.921875 C 2.234375 -3.109375 1.648438 -3.351562 1.265625 -3.65625 C 0.890625 -3.96875 0.703125 -4.421875 0.703125 -5.015625 C 0.703125 -5.628906 0.941406 -6.117188 1.421875 -6.484375 C 1.910156 -6.859375 2.5 -7.046875 3.1875 -7.046875 Z M 3.1875 -7.046875 "/></g></g></g><g fill="#000000" fill-opacity="1"><g transform="translate(179.218822, 283.793741)"><g><path d="M 5.875 -1.09375 L 5.875 0 L 0.890625 0 L 0.890625 -6.90625 L 5.765625 -6.90625 L 5.765625 -5.8125 L 2.265625 -5.8125 L 2.265625 -4 L 5.515625 -4 L 5.515625 -2.90625 L 2.265625 -2.90625 L 2.265625 -1.09375 Z M 5.875 -1.09375 "/></g></g></g><g fill="#000000" fill-opacity="1"><g transform="translate(186.576391, 283.793741)"><g><path d="M 6.296875 -5.8125 L 3.953125 -5.8125 L 3.953125 0 L 2.5625 0 L 2.5625 -5.8125 L 0.234375 -5.8125 L 0.234375 -6.90625 L 6.296875 -6.90625 Z M 6.296875 -5.8125 "/></g></g></g><g fill="#000000" fill-opacity="1"><g transform="translate(194.003929, 283.793741)"><g><path d="M 6.296875 -5.8125 L 3.953125 -5.8125 L 3.953125 0 L 2.5625 0 L 2.5625 -5.8125 L 0.234375 -5.8125 L 0.234375 -6.90625 L 6.296875 -6.90625 Z M 6.296875 -5.8125 "/></g></g></g><g fill="#000000" fill-opacity="1"><g transform="translate(201.431471, 283.793741)"><g><path d="M 2.265625 0 L 0.890625 0 L 0.890625 -6.90625 L 2.265625 -6.90625 Z M 2.265625 0 "/></g></g></g><g fill="#000000" fill-opacity="1"><g transform="translate(205.550319, 283.793741)"><g><path d="M 6.953125 0 L 5.0625 0 L 2.21875 -5.234375 C 2.25 -4.609375 2.265625 -3.90625 2.265625 -3.125 L 2.265625 0 L 0.890625 0 L 0.890625 -6.90625 L 2.71875 -6.90625 L 5.625 -1.5625 C 5.582031 -2.175781 5.5625 -2.898438 5.5625 -3.734375 L 5.5625 -6.90625 L 6.9375 -6.90625 Z M 6.953125 0 "/></g></g></g><g fill="#000000" fill-opacity="1"><g transform="translate(214.347318, 283.793741)"><g><path d="M 4.046875 -3.515625 L 6.828125 -3.515625 L 6.828125 0 L 5.71875 0 L 5.625 -1.125 L 5.3125 -0.421875 C 4.9375 -0.046875 4.378906 0.140625 3.640625 0.140625 C 2.679688 0.140625 1.921875 -0.175781 1.359375 -0.8125 C 0.796875 -1.445312 0.515625 -2.3125 0.515625 -3.40625 C 0.515625 -4.507812 0.832031 -5.390625 1.46875 -6.046875 C 2.113281 -6.710938 2.925781 -7.046875 3.90625 -7.046875 C 4.8125 -7.046875 5.515625 -6.828125 6.015625 -6.390625 C 6.523438 -5.953125 6.816406 -5.375 6.890625 -4.65625 L 6.90625 -4.5625 L 5.515625 -4.5625 L 5.5 -4.65625 C 5.320312 -5.5625 4.785156 -6.015625 3.890625 -6.015625 C 3.328125 -6.015625 2.863281 -5.785156 2.5 -5.328125 C 2.144531 -4.878906 1.96875 -4.265625 1.96875 -3.484375 C 1.96875 -2.648438 2.140625 -2.007812 2.484375 -1.5625 C 2.835938 -1.113281 3.289062 -0.890625 3.84375 -0.890625 C 4.289062 -0.890625 4.660156 -1.023438 4.953125 -1.296875 C 5.253906 -1.566406 5.441406 -1.945312 5.515625 -2.4375 L 4.046875 -2.4375 Z M 4.046875 -3.515625 "/></g></g></g><g fill="#000000" fill-opacity="1"><g transform="translate(222.914404, 283.793741)"><g><path d="M 3.1875 -7.046875 C 3.96875 -7.046875 4.566406 -6.847656 4.984375 -6.453125 C 5.398438 -6.054688 5.648438 -5.53125 5.734375 -4.875 L 4.3125 -4.875 C 4.28125 -5.226562 4.160156 -5.503906 3.953125 -5.703125 C 3.753906 -5.910156 3.476562 -6.015625 3.125 -6.015625 C 2.84375 -6.015625 2.609375 -5.941406 2.421875 -5.796875 C 2.242188 -5.660156 2.15625 -5.457031 2.15625 -5.1875 C 2.15625 -4.894531 2.265625 -4.664062 2.484375 -4.5 C 2.703125 -4.332031 3.082031 -4.1875 3.625 -4.0625 C 4.382812 -3.882812 4.941406 -3.617188 5.296875 -3.265625 C 5.648438 -2.910156 5.828125 -2.457031 5.828125 -1.90625 C 5.828125 -1.269531 5.578125 -0.769531 5.078125 -0.40625 C 4.585938 -0.0390625 3.988281 0.140625 3.28125 0.140625 C 2.4375 0.140625 1.765625 -0.0390625 1.265625 -0.40625 C 0.765625 -0.78125 0.484375 -1.328125 0.421875 -2.046875 L 1.828125 -2.046875 C 1.898438 -1.671875 2.066406 -1.382812 2.328125 -1.1875 C 2.585938 -0.988281 2.898438 -0.890625 3.265625 -0.890625 C 3.578125 -0.890625 3.84375 -0.96875 4.0625 -1.125 C 4.28125 -1.289062 4.390625 -1.503906 4.390625 -1.765625 C 4.390625 -2.054688 4.285156 -2.289062 4.078125 -2.46875 C 3.867188 -2.644531 3.515625 -2.796875 3.015625 -2.921875 C 2.234375 -3.109375 1.648438 -3.351562 1.265625 -3.65625 C 0.890625 -3.96875 0.703125 -4.421875 0.703125 -5.015625 C 0.703125 -5.628906 0.941406 -6.117188 1.421875 -6.484375 C 1.910156 -6.859375 2.5 -7.046875 3.1875 -7.046875 Z M 3.1875 -7.046875 "/></g></g></g><g fill="#000000" fill-opacity="1"><g transform="translate(188.095048, 296.543741)"><g/></g></g></svg>