<svg xmlns="http://www.w3.org/2000/svg" viewBox="0 0 48 48"><g data-name="Break Dics"><path fill="#db5669" d="M24 1v10a13 13 0 0 0-13 13H1A23 23 0 0 1 24 1Z"/><path fill="#f26674" d="M2.33 16.28a23.05 23.05 0 0 1 13.74-8A3.36 3.36 0 0 1 20 11.63a13.38 13.38 0 0 1 4-.63V1A23 23 0 0 0 2.33 16.28Z"/><path fill="#7c7d7d" d="M47 26a21 21 0 0 1-41.9 2H8a1 1 0 0 0 1-1v-3h2a13 13 0 0 1 13-13V9h3a1 1 0 0 0 1-1V5.1A21 21 0 0 1 47 26Z"/><path fill="#919191" d="M44.19 36.5a21 21 0 0 1-35.42-8.86c.32-.39.23-.57.23-3.64h2a13 13 0 0 1 13-13V9h3a1 1 0 0 0 1-1V5.1a21 21 0 0 1 16.19 31.4Z"/><path fill="#2c435e" d="M9 24v3a1 1 0 0 1-1 1H4a1 1 0 0 1-1-1v-3Z"/><path fill="#374f68" d="M9 25v2a1 1 0 0 1-1 1H4v-3zM28 4v4a1 1 0 0 1-1 1h-3V3h3a1 1 0 0 1 1 1z"/><path fill="#425b72" d="M28 4v4h-3V3h2a1 1 0 0 1 1 1Z"/><path fill="#dad7e5" d="M38 26a12 12 0 1 1-22.18-6.36C22.17 9.49 38 13.94 38 26Z"/><path fill="#edebf2" d="M38 26a11.9 11.9 0 0 1-.82 4.36 12 12 0 0 1-21.36-10.72C22.17 9.49 38 13.94 38 26Z"/><path fill="#2c435e" d="M29 26a3 3 0 1 1-4.56-2.56A3 3 0 0 1 29 26Z"/><path fill="#425b72" d="M28.56 27.56a3 3 0 0 1-4.12-4.12 3 3 0 0 1 4.12 4.12Z"/><path fill="#231f20" d="M29 4.23V4a2 2 0 0 0-2-2h-2V1a1 1 0 0 0-1-1A24 24 0 0 0 0 24a1 1 0 0 0 1 1h1v2a2 2 0 0 0 2.23 2A22 22 0 1 0 29 4.23ZM27 4v4h-2V4Zm-4-2v8a14 14 0 0 0-13 13H2A22 22 0 0 1 23 2ZM4 25h4v2H4Zm22 21A19.87 19.87 0 0 1 6.25 29H8a2 2 0 0 0 2-2v-2h1a1 1 0 0 0 1-1 12 12 0 0 1 12-12 1 1 0 0 0 1-1v-1h2a2 2 0 0 0 2-2V6.25A20 20 0 0 1 26 46Z"/><path fill="#231f20" d="M26 23a3 3 0 1 0 3 3 3 3 0 0 0-3-3Zm0 4a1 1 0 0 1 0-2 1 1 0 0 1 0 2Z"/><path fill="#231f20" d="M26 13a13 13 0 1 0 13 13 13 13 0 0 0-13-13Zm0 24a11 11 0 1 1 11-11 11 11 0 0 1-11 11Z"/><circle cx="7" cy="19" r="2" fill="#231f20"/><circle cx="11" cy="11" r="2" fill="#231f20"/><circle cx="19" cy="7" r="2" fill="#231f20"/><circle cx="26" cy="19" r="2" fill="#231f20"/><circle cx="33" cy="26" r="2" fill="#231f20"/><circle cx="26" cy="33" r="2" fill="#231f20"/><circle cx="19" cy="26" r="2" fill="#231f20"/><path fill="#231f20" d="M26 40a1 1 0 0 0 0 2 1 1 0 0 0 0-2zm15-15a1 1 0 0 0 0 2 1 1 0 0 0 0-2zM26 43a1 1 0 0 0 0 2 1 1 0 0 0 0-2zm18-18a1 1 0 0 0 0 2 1 1 0 0 0 0-2zm-7 11a1 1 0 0 0 0 2 1 1 0 0 0 0-2zm2 2a1 1 0 0 0 0 2 1 1 0 0 0 0-2zm-26.68-.95a1 1 0 0 0-.64 1.9 1 1 0 0 0 .64-1.9zm2-2a1 1 0 0 0-.64 1.9 1 1 0 0 0 .64-1.9zM35.68 15a1 1 0 0 0 .64-1.9 1 1 0 0 0-.64 1.9zm2-2a1 1 0 0 0 .64-1.9 1 1 0 0 0-.64 1.9z"/></g></svg>