<svg xmlns="http://www.w3.org/2000/svg" enable-background="new 0 0 48 48" viewBox="0 0 48 48"><path fill="black" stroke="black" d="M44,23h-2.57c-0.49-3.94-3.86-7-7.93-7c-2.61,0-4.92,1.26-6.38,3.19c-1.94-1.02-4.3-1.02-6.24,0
		C19.42,17.26,17.11,16,14.5,16c-4.07,0-7.44,3.06-7.93,7H4c-0.55,0-1,0.45-1,1s0.45,1,1,1h2.57c0.49,3.94,3.86,7,7.93,7
		c4.41,0,8-3.59,8-8c0-1.09-0.22-2.13-0.62-3.07c1.33-0.66,2.91-0.66,4.23,0c-0.4,0.95-0.62,1.99-0.62,3.07c0,4.41,3.59,8,8,8
		c4.07,0,7.44-3.06,7.93-7H44c0.55,0,1-0.45,1-1S44.55,23,44,23z M14.5,30c-3.31,0-6-2.69-6-6s2.69-6,6-6s6,2.69,6,6
		S17.81,30,14.5,30z M33.5,30c-3.31,0-6-2.69-6-6s2.69-6,6-6s6,2.69,6,6S36.81,30,33.5,30z"/><path fill="black" stroke="black" d="M36.5 23c-.55 0-1 .45-1 1 0 1.1-.9 2-2 2-.55 0-1 .45-1 1s.45 1 1 1c2.21 0 4-1.79 4-4C37.5 23.45 37.05 23 36.5 23zM17.5 23c-.55 0-1 .45-1 1 0 1.1-.9 2-2 2-.55 0-1 .45-1 1s.45 1 1 1c2.21 0 4-1.79 4-4C18.5 23.45 18.05 23 17.5 23z"/></svg>