<svg xmlns="http://www.w3.org/2000/svg" enable-background="new 0 0 64 64" viewBox="0 0 64 64"><path fill="white" d="M37.8,32c0-3.2-2.6-5.8-5.8-5.8s-5.8,2.6-5.8,5.8s2.6,5.8,5.8,5.8S37.8,35.2,37.8,32z M28.2,32c0-2.1,1.7-3.8,3.8-3.8s3.8,1.7,3.8,3.8s-1.7,3.8-3.8,3.8S28.2,34.1,28.2,32z"/><path fill="white" d="M32,0C14.4,0,0,14.4,0,32s14.4,32,32,32s32-14.4,32-32S49.6,0,32,0z M32,62C15.5,62,2,48.5,2,32S15.5,2,32,2s30,13.5,30,30S48.5,62,32,62z"/><path fill="white" d="M32,7C18.2,7,7,18.2,7,32s11.2,25,25,25s25-11.2,25-25S45.8,7,32,7z M32,9c10.2,0,18.8,6.6,21.8,15.8c-14.5-5-29.2-5-43.7,0C13.2,15.6,21.8,9,32,9z M9.6,37h3.1C20.6,37,27,43.4,27,51.3v3.1C18.3,52.5,11.5,45.7,9.6,37z M29,54.8v-3.5c0-9-7.3-16.3-16.3-16.3H9.2C9.1,34,9,33,9,32c0-1.7,0.2-3.3,0.5-4.9c14.9-5.5,30-5.5,45,0c0.3,1.6,0.5,3.2,0.5,4.9c0,1-0.1,2-0.2,3h-3.5c-9,0-16.3,7.3-16.3,16.3v3.5c-1,0.1-2,0.2-3,0.2S30,54.9,29,54.8z M37,54.4v-3.1C37,43.4,43.4,37,51.3,37h3.1C52.5,45.7,45.7,52.5,37,54.4z"/><path d="M49.7 31.5h.7c.6 0 1-.4 1-1s-.4-1-1-1h-.7c-.6 0-1 .4-1 1S49.1 31.5 49.7 31.5zM45.7 29h.7c.6 0 1-.4 1-1s-.4-1-1-1h-.7c-.6 0-1 .4-1 1S45.1 29 45.7 29zM45.7 33.9h.7c.6 0 1-.4 1-1s-.4-1-1-1h-.7c-.6 0-1 .4-1 1S45.1 33.9 45.7 33.9zM14.3 29.5h-.7c-.6 0-1 .4-1 1s.4 1 1 1h.7c.6 0 1-.4 1-1S14.9 29.5 14.3 29.5zM18.3 27h-.7c-.6 0-1 .4-1 1s.4 1 1 1h.7c.6 0 1-.4 1-1S18.9 27 18.3 27zM18.3 31.9h-.7c-.6 0-1 .4-1 1s.4 1 1 1h.7c.6 0 1-.4 1-1S18.9 31.9 18.3 31.9zM32 46.7c-.6 0-1 .4-1 1v2.7c0 .6.4 1 1 1 .6 0 1-.4 1-1v-2.7C33 47.1 32.6 46.7 32 46.7z"/></svg>