<svg xmlns="http://www.w3.org/2000/svg" baseProfile="basic" viewBox="0 0 48 40"><path d="M2 28l14-7 24 12-14 7z" opacity=".3"/><path fill="#2D3134" d="M21.5 30.8c-.7-.4-1.4-.4-1.9-.2l-1.4.7c-.5.2-.9.8-.9 1.6 0 1.5 1.3 3.4 2.8 4.2.8.4 1.5.4 2 .2 0 0 1.4-.7 1.5-.8.5-.3.7-.8.7-1.5 0-1.6-1.3-3.5-2.8-4.2z"/><path d="M22 37.2c.2-.1 1.4-.7 1.5-.7.5-.3.7-.8.7-1.5 0-.6-.2-1.3-.5-1.9l-1.4.7c.3.6.5 1.3.5 1.9.1.7-.3 1.3-.8 1.5z" opacity=".39"/><path fill="#999" d="M22.1 35.3c0 1.2-.9 1.6-2.1 1-1.2-.6-2.1-2-2.1-3.2s.9-1.6 2.1-1c1.2.6 2.1 2 2.1 3.2z"/><path fill="#808285" d="M20.2 36.3c-1.2-.6-2.1-2-2.1-3.2 0-.6.2-1 .6-1.2-.5.1-.8.6-.8 1.2 0 1.2.9 2.6 2.1 3.2.6.3 1.1.3 1.5.1-.3.2-.8.1-1.3-.1z"/><path fill="#2D3134" d="M21.1 34.6c0 .5-.4.7-.9.4s-.9-.8-.9-1.3.4-.7.9-.4.9.8.9 1.3z"/><path d="M21.1 34.6c0 .5-.4.7-.9.4s-.9-.8-.9-1.3.4-.7.9-.4.9.8.9 1.3z" opacity=".39"/><path fill="#2D3134" d="M20.9 34.7c0 .5-.4.7-.9.4-.5-.2-.9-.8-.9-1.3s.4-.7.9-.4c.5.2.9.8.9 1.3z"/><path d="M22.9 35.7c0 1.5-1.3 2.2-2.8 1.4-1.5-.8-2.8-2.7-2.8-4.2s1.3-2.2 2.8-1.4c1.5.7 2.8 2.6 2.8 4.2z" opacity=".06"/><path fill="#2D3134" d="M22.5 32.9v3.8l2.5-1.3v-3.7z"/><path d="M22.5 32.9v3.8l2.5-1.3v-3.7z" opacity=".06"/><path fill="#2D3134" d="M7.4 23.8c-.7-.4-1.4-.4-1.9-.2l-1.4.7c-.5.2-.9.8-.9 1.6 0 1.5 1.3 3.4 2.8 4.2.8.4 1.5.4 2 .2 0 0 1.4-.7 1.5-.8.5-.3.7-.8.7-1.5.1-1.6-1.2-3.5-2.8-4.2z"/><path d="M8 30.2c.2-.1 1.4-.7 1.5-.7.5-.3.7-.8.7-1.5 0-.6-.2-1.3-.5-1.9l-1.4.7c.3.6.5 1.3.5 1.9.1.7-.3 1.3-.8 1.5z" opacity=".39"/><path fill="#999" d="M8.1 28.3c0 1.2-.9 1.6-2.1 1s-2-1.9-2-3.1.9-1.6 2.1-1c1.1.5 2 1.9 2 3.1z"/><path fill="#808285" d="M6.2 29.3c-1.2-.6-2.1-2-2.1-3.2 0-.6.2-1 .6-1.2-.4.2-.7.6-.7 1.3 0 1.2.9 2.6 2.1 3.2.6.3 1.1.3 1.5.1-.4.1-.9 0-1.4-.2z"/><path fill="#2D3134" d="M7.1 27.6c0 .5-.4.7-.9.4s-.9-.8-.9-1.3.4-.7.9-.4.9.8.9 1.3z"/><path d="M7.1 27.6c0 .5-.4.7-.9.4s-.9-.8-.9-1.3.4-.7.9-.4.9.8.9 1.3z" opacity=".39"/><path fill="#2D3134" d="M6.9 27.7c0 .5-.4.7-.9.4s-.9-.8-.9-1.3.4-.7.9-.4.9.8.9 1.3z"/><path d="M8.9 28.7c0 1.5-1.3 2.2-2.8 1.4-1.5-.8-2.8-2.7-2.8-4.2s1.3-2.2 2.8-1.4c1.5.7 2.8 2.6 2.8 4.2z" opacity=".06"/><path fill="#2D3134" d="M8.5 25.9v3.8l2.5-1.3v-3.7z"/><path d="M8.5 25.9v3.8l2.5-1.3v-3.7z" opacity=".06"/><path fill="#2D3134" d="M40 26v2l-14 7v-2zM2 21v2l24 12v-2z"/><path fill="#28896D" d="M16 6L2 13v8l24 12 14-7v-8z"/><path d="M30 22l-14-7V7l22 11z" opacity=".06"/><path d="M12 17l4-2V7L4 13z" opacity=".39"/><path d="M26 35L2 23V13l24 12z" opacity=".06"/><path d="M40 18l-14 7v10l14-7z" opacity=".39"/><path fill="#28896D" d="M16 6L2 13l24 12 14-7L16 6zm10 18L4 13l12-6 22 11-12 6z"/><path fill="#FFF" d="M12 17l14 7 4-2-14-7z" opacity=".1"/><path fill="#28896D" d="M36 28l-6 3v1l14 5 2-1v-1l-10-7zm-2.8 3.4L36 30l5.6 4.2-8.4-2.8z"/><path fill="#28896D" d="M36 30l8 6v-1l-8-6-4 2v1z"/><path d="M30 31v1l14 5v-1z" opacity=".06"/><path d="M44 37l2-1v-1l-2 1z" opacity=".39"/><path d="M36 30l5.6 4.2 2.4.8-8-6z" opacity=".06"/><path d="M32 31l1.2.4L36 30v-1z" opacity=".39"/></svg>